<?xml version="1.0" encoding="UTF-8"?>
<svg width="1133px" height="4px" viewBox="0 0 1133 4" version="1.1" xmlns="http://www.w3.org/2000/svg" xmlns:xlink="http://www.w3.org/1999/xlink">
    <title>Group 10</title>
    <g id="harvest" stroke="none" stroke-width="1" fill="none" fill-rule="evenodd">
        <g id="Group-10" fill="#35342F">
            <g id="Group-9">
                <g id="Group-2" transform="translate(720.049053, 0.000000)">
                    <circle id="Oval-Copy" cx="9.45094734" cy="2" r="1.5"></circle>
                    <circle id="Oval-Copy-6" cx="1.5" cy="2" r="1.5"></circle>
                    <circle id="Oval-Copy-2" cx="17.4509473" cy="2" r="1.5"></circle>
                    <circle id="Oval-Copy-3" cx="25.4509473" cy="2" r="1.5"></circle>
                    <circle id="Oval-Copy-4" cx="33.4509473" cy="2" r="1.5"></circle>
                    <circle id="Oval-Copy-22" cx="49.50651" cy="2" r="1.5"></circle>
                    <circle id="Oval-Copy-5" cx="41.4509473" cy="2" r="1.5"></circle>
                    <circle id="Oval-Copy-24" cx="57.50651" cy="2" r="1.5"></circle>
                    <circle id="Oval-Copy-26" cx="65.50651" cy="2" r="1.5"></circle>
                </g>
                <g id="Group-2-Copy" transform="translate(648.000000, 0.000000)">
                    <circle id="Oval-Copy" cx="9.45094734" cy="2" r="1.5"></circle>
                    <circle id="Oval-Copy-6" cx="1.5" cy="2" r="1.5"></circle>
                    <circle id="Oval-Copy-2" cx="17.4509473" cy="2" r="1.5"></circle>
                    <circle id="Oval-Copy-3" cx="25.4509473" cy="2" r="1.5"></circle>
                    <circle id="Oval-Copy-4" cx="33.4509473" cy="2" r="1.5"></circle>
                    <circle id="Oval-Copy-22" cx="49.50651" cy="2" r="1.5"></circle>
                    <circle id="Oval-Copy-5" cx="41.4509473" cy="2" r="1.5"></circle>
                    <circle id="Oval-Copy-24" cx="57.50651" cy="2" r="1.5"></circle>
                    <circle id="Oval-Copy-26" cx="65.50651" cy="2" r="1.5"></circle>
                </g>
                <g id="Group-2-Copy-2" transform="translate(576.000000, 0.000000)">
                    <circle id="Oval-Copy" cx="9.45094734" cy="2" r="1.5"></circle>
                    <circle id="Oval-Copy-6" cx="1.5" cy="2" r="1.5"></circle>
                    <circle id="Oval-Copy-2" cx="17.4509473" cy="2" r="1.5"></circle>
                    <circle id="Oval-Copy-3" cx="25.4509473" cy="2" r="1.5"></circle>
                    <circle id="Oval-Copy-4" cx="33.4509473" cy="2" r="1.5"></circle>
                    <circle id="Oval-Copy-22" cx="49.50651" cy="2" r="1.5"></circle>
                    <circle id="Oval-Copy-5" cx="41.4509473" cy="2" r="1.5"></circle>
                    <circle id="Oval-Copy-24" cx="57.50651" cy="2" r="1.5"></circle>
                    <circle id="Oval-Copy-26" cx="65.50651" cy="2" r="1.5"></circle>
                </g>
                <g id="Group-2-Copy-3" transform="translate(504.000000, 0.000000)">
                    <circle id="Oval-Copy" cx="9.45094734" cy="2" r="1.5"></circle>
                    <circle id="Oval-Copy-6" cx="1.5" cy="2" r="1.5"></circle>
                    <circle id="Oval-Copy-2" cx="17.4509473" cy="2" r="1.5"></circle>
                    <circle id="Oval-Copy-3" cx="25.4509473" cy="2" r="1.5"></circle>
                    <circle id="Oval-Copy-4" cx="33.4509473" cy="2" r="1.5"></circle>
                    <circle id="Oval-Copy-22" cx="49.50651" cy="2" r="1.5"></circle>
                    <circle id="Oval-Copy-5" cx="41.4509473" cy="2" r="1.5"></circle>
                    <circle id="Oval-Copy-24" cx="57.50651" cy="2" r="1.5"></circle>
                    <circle id="Oval-Copy-26" cx="65.50651" cy="2" r="1.5"></circle>
                </g>
                <g id="Group-2-Copy-4" transform="translate(432.000000, 0.000000)">
                    <circle id="Oval-Copy" cx="9.45094734" cy="2" r="1.5"></circle>
                    <circle id="Oval-Copy-6" cx="1.5" cy="2" r="1.5"></circle>
                    <circle id="Oval-Copy-2" cx="17.4509473" cy="2" r="1.5"></circle>
                    <circle id="Oval-Copy-3" cx="25.4509473" cy="2" r="1.5"></circle>
                    <circle id="Oval-Copy-4" cx="33.4509473" cy="2" r="1.5"></circle>
                    <circle id="Oval-Copy-22" cx="49.50651" cy="2" r="1.5"></circle>
                    <circle id="Oval-Copy-5" cx="41.4509473" cy="2" r="1.5"></circle>
                    <circle id="Oval-Copy-24" cx="57.50651" cy="2" r="1.5"></circle>
                    <circle id="Oval-Copy-26" cx="65.50651" cy="2" r="1.5"></circle>
                </g>
                <g id="Group-2-Copy-5" transform="translate(360.000000, 0.000000)">
                    <circle id="Oval-Copy" cx="9.45094734" cy="2" r="1.5"></circle>
                    <circle id="Oval-Copy-6" cx="1.5" cy="2" r="1.5"></circle>
                    <circle id="Oval-Copy-2" cx="17.4509473" cy="2" r="1.5"></circle>
                    <circle id="Oval-Copy-3" cx="25.4509473" cy="2" r="1.5"></circle>
                    <circle id="Oval-Copy-4" cx="33.4509473" cy="2" r="1.5"></circle>
                    <circle id="Oval-Copy-22" cx="49.50651" cy="2" r="1.5"></circle>
                    <circle id="Oval-Copy-5" cx="41.4509473" cy="2" r="1.5"></circle>
                    <circle id="Oval-Copy-24" cx="57.50651" cy="2" r="1.5"></circle>
                    <circle id="Oval-Copy-26" cx="65.50651" cy="2" r="1.5"></circle>
                </g>
                <g id="Group-2-Copy-6" transform="translate(288.000000, 0.000000)">
                    <circle id="Oval-Copy" cx="9.45094734" cy="2" r="1.5"></circle>
                    <circle id="Oval-Copy-6" cx="1.5" cy="2" r="1.5"></circle>
                    <circle id="Oval-Copy-2" cx="17.4509473" cy="2" r="1.5"></circle>
                    <circle id="Oval-Copy-3" cx="25.4509473" cy="2" r="1.5"></circle>
                    <circle id="Oval-Copy-4" cx="33.4509473" cy="2" r="1.5"></circle>
                    <circle id="Oval-Copy-22" cx="49.50651" cy="2" r="1.5"></circle>
                    <circle id="Oval-Copy-5" cx="41.4509473" cy="2" r="1.5"></circle>
                    <circle id="Oval-Copy-24" cx="57.50651" cy="2" r="1.5"></circle>
                    <circle id="Oval-Copy-26" cx="65.50651" cy="2" r="1.5"></circle>
                </g>
                <g id="Group-2-Copy-7" transform="translate(216.000000, 0.000000)">
                    <circle id="Oval-Copy" cx="9.45094734" cy="2" r="1.5"></circle>
                    <circle id="Oval-Copy-6" cx="1.5" cy="2" r="1.5"></circle>
                    <circle id="Oval-Copy-2" cx="17.4509473" cy="2" r="1.5"></circle>
                    <circle id="Oval-Copy-3" cx="25.4509473" cy="2" r="1.5"></circle>
                    <circle id="Oval-Copy-4" cx="33.4509473" cy="2" r="1.5"></circle>
                    <circle id="Oval-Copy-22" cx="49.50651" cy="2" r="1.5"></circle>
                    <circle id="Oval-Copy-5" cx="41.4509473" cy="2" r="1.5"></circle>
                    <circle id="Oval-Copy-24" cx="57.50651" cy="2" r="1.5"></circle>
                    <circle id="Oval-Copy-26" cx="65.50651" cy="2" r="1.5"></circle>
                </g>
                <g id="Group-2-Copy-8" transform="translate(144.000000, 0.000000)">
                    <circle id="Oval-Copy" cx="9.45094734" cy="2" r="1.5"></circle>
                    <circle id="Oval-Copy-6" cx="1.5" cy="2" r="1.5"></circle>
                    <circle id="Oval-Copy-2" cx="17.4509473" cy="2" r="1.5"></circle>
                    <circle id="Oval-Copy-3" cx="25.4509473" cy="2" r="1.5"></circle>
                    <circle id="Oval-Copy-4" cx="33.4509473" cy="2" r="1.5"></circle>
                    <circle id="Oval-Copy-22" cx="49.50651" cy="2" r="1.5"></circle>
                    <circle id="Oval-Copy-5" cx="41.4509473" cy="2" r="1.5"></circle>
                    <circle id="Oval-Copy-24" cx="57.50651" cy="2" r="1.5"></circle>
                    <circle id="Oval-Copy-26" cx="65.50651" cy="2" r="1.5"></circle>
                </g>
                <g id="Group-2-Copy-9" transform="translate(72.000000, 0.000000)">
                    <circle id="Oval-Copy" cx="9.45094734" cy="2" r="1.5"></circle>
                    <circle id="Oval-Copy-6" cx="1.5" cy="2" r="1.5"></circle>
                    <circle id="Oval-Copy-2" cx="17.4509473" cy="2" r="1.5"></circle>
                    <circle id="Oval-Copy-3" cx="25.4509473" cy="2" r="1.5"></circle>
                    <circle id="Oval-Copy-4" cx="33.4509473" cy="2" r="1.5"></circle>
                    <circle id="Oval-Copy-22" cx="49.50651" cy="2" r="1.5"></circle>
                    <circle id="Oval-Copy-5" cx="41.4509473" cy="2" r="1.5"></circle>
                    <circle id="Oval-Copy-24" cx="57.50651" cy="2" r="1.5"></circle>
                    <circle id="Oval-Copy-26" cx="65.50651" cy="2" r="1.5"></circle>
                </g>
                <g id="Group-2-Copy-10">
                    <circle id="Oval-Copy" cx="9.45094734" cy="2" r="1.5"></circle>
                    <circle id="Oval-Copy-6" cx="1.5" cy="2" r="1.5"></circle>
                    <circle id="Oval-Copy-2" cx="17.4509473" cy="2" r="1.5"></circle>
                    <circle id="Oval-Copy-3" cx="25.4509473" cy="2" r="1.5"></circle>
                    <circle id="Oval-Copy-4" cx="33.4509473" cy="2" r="1.5"></circle>
                    <circle id="Oval-Copy-22" cx="49.50651" cy="2" r="1.5"></circle>
                    <circle id="Oval-Copy-5" cx="41.4509473" cy="2" r="1.5"></circle>
                    <circle id="Oval-Copy-24" cx="57.50651" cy="2" r="1.5"></circle>
                    <circle id="Oval-Copy-26" cx="65.50651" cy="2" r="1.5"></circle>
                </g>
            </g>
            <g id="Group-9-Copy" transform="translate(793.000000, 0.000000)">
                <g id="Group-2-Copy-6" transform="translate(288.000000, 0.000000)">
                    <circle id="Oval-Copy" cx="9.45094734" cy="2" r="1.5"></circle>
                    <circle id="Oval-Copy-6" cx="1.5" cy="2" r="1.5"></circle>
                    <circle id="Oval-Copy-2" cx="17.4509473" cy="2" r="1.5"></circle>
                    <circle id="Oval-Copy-3" cx="25.4509473" cy="2" r="1.5"></circle>
                    <circle id="Oval-Copy-4" cx="33.4509473" cy="2" r="1.5"></circle>
                    <circle id="Oval-Copy-22" cx="49.50651" cy="2" r="1.5"></circle>
                    <circle id="Oval-Copy-5" cx="41.4509473" cy="2" r="1.5"></circle>
                </g>
                <g id="Group-2-Copy-7" transform="translate(216.000000, 0.000000)">
                    <circle id="Oval-Copy" cx="9.45094734" cy="2" r="1.5"></circle>
                    <circle id="Oval-Copy-6" cx="1.5" cy="2" r="1.5"></circle>
                    <circle id="Oval-Copy-2" cx="17.4509473" cy="2" r="1.5"></circle>
                    <circle id="Oval-Copy-3" cx="25.4509473" cy="2" r="1.5"></circle>
                    <circle id="Oval-Copy-4" cx="33.4509473" cy="2" r="1.5"></circle>
                    <circle id="Oval-Copy-22" cx="49.50651" cy="2" r="1.5"></circle>
                    <circle id="Oval-Copy-5" cx="41.4509473" cy="2" r="1.5"></circle>
                    <circle id="Oval-Copy-24" cx="57.50651" cy="2" r="1.5"></circle>
                    <circle id="Oval-Copy-26" cx="65.50651" cy="2" r="1.5"></circle>
                </g>
                <g id="Group-2-Copy-8" transform="translate(144.000000, 0.000000)">
                    <circle id="Oval-Copy" cx="9.45094734" cy="2" r="1.5"></circle>
                    <circle id="Oval-Copy-6" cx="1.5" cy="2" r="1.5"></circle>
                    <circle id="Oval-Copy-2" cx="17.4509473" cy="2" r="1.5"></circle>
                    <circle id="Oval-Copy-3" cx="25.4509473" cy="2" r="1.5"></circle>
                    <circle id="Oval-Copy-4" cx="33.4509473" cy="2" r="1.5"></circle>
                    <circle id="Oval-Copy-22" cx="49.50651" cy="2" r="1.5"></circle>
                    <circle id="Oval-Copy-5" cx="41.4509473" cy="2" r="1.5"></circle>
                    <circle id="Oval-Copy-24" cx="57.50651" cy="2" r="1.5"></circle>
                    <circle id="Oval-Copy-26" cx="65.50651" cy="2" r="1.5"></circle>
                </g>
                <g id="Group-2-Copy-9" transform="translate(72.000000, 0.000000)">
                    <circle id="Oval-Copy" cx="9.45094734" cy="2" r="1.5"></circle>
                    <circle id="Oval-Copy-6" cx="1.5" cy="2" r="1.5"></circle>
                    <circle id="Oval-Copy-2" cx="17.4509473" cy="2" r="1.5"></circle>
                    <circle id="Oval-Copy-3" cx="25.4509473" cy="2" r="1.5"></circle>
                    <circle id="Oval-Copy-4" cx="33.4509473" cy="2" r="1.5"></circle>
                    <circle id="Oval-Copy-22" cx="49.50651" cy="2" r="1.5"></circle>
                    <circle id="Oval-Copy-5" cx="41.4509473" cy="2" r="1.5"></circle>
                    <circle id="Oval-Copy-24" cx="57.50651" cy="2" r="1.5"></circle>
                    <circle id="Oval-Copy-26" cx="65.50651" cy="2" r="1.5"></circle>
                </g>
                <g id="Group-2-Copy-10">
                    <circle id="Oval-Copy" cx="9.45094734" cy="2" r="1.5"></circle>
                    <circle id="Oval-Copy-6" cx="1.5" cy="2" r="1.5"></circle>
                    <circle id="Oval-Copy-2" cx="17.4509473" cy="2" r="1.5"></circle>
                    <circle id="Oval-Copy-3" cx="25.4509473" cy="2" r="1.5"></circle>
                    <circle id="Oval-Copy-4" cx="33.4509473" cy="2" r="1.5"></circle>
                    <circle id="Oval-Copy-22" cx="49.50651" cy="2" r="1.5"></circle>
                    <circle id="Oval-Copy-5" cx="41.4509473" cy="2" r="1.5"></circle>
                    <circle id="Oval-Copy-24" cx="57.50651" cy="2" r="1.5"></circle>
                    <circle id="Oval-Copy-26" cx="65.50651" cy="2" r="1.5"></circle>
                </g>
            </g>
        </g>
    </g>
</svg>